<svg xmlns="http://www.w3.org/2000/svg" viewBox="0, 0, 907.35, 345.45" font-family="SauceCodePro Nerd Font, Source Code Pro, Courier" font-size="14"><g fill="#D3D3D3"><rect x="0" y="0" width="907.35" height="345.45" fill="#000000"/><path d="M0,35.5146875 L168.02734375,35.5146875 Z" stroke="#D3D3D3"/><text x="0" y="33.55" font-weight="bold">command-line-publish</text><text x="16.8" y="71.55">  Convert &#x60;command-line-usage&#x60; JSON or JavaScript ESM into HTML or SVG files    </text><text x="16.8" y="109.55" font-style="italic">clp -c=&#x22;configPath&#x22; [--format=svg|html] target</text><path d="M0,149.5146875 L58.8095703125,149.5146875 Z" stroke="#D3D3D3"/><text x="0" y="147.55" font-weight="bold">Options</text><text x="16.8" y="185.55" font-weight="bold">-t</text><text x="33.61" y="185.55">, </text><text x="50.41" y="185.55" font-weight="bold">--target</text><path d="M126.0205078125,187.5146875 L201.6328125,187.5146875 Z" stroke="#D3D3D3"/><text x="126.02" y="185.55">file-path</text><text x="252.04" y="185.55">      The file path target to which to write the result                             </text><text x="16.8" y="204.55" font-weight="bold">-c</text><text x="33.61" y="204.55">, </text><text x="50.41" y="204.55" font-weight="bold">--config</text><path d="M126.0205078125,206.5146875 L201.6328125,206.5146875 Z" stroke="#D3D3D3"/><text x="126.02" y="204.55">file-path</text><text x="252.04" y="204.55">      Config file (or directory) to process for opening its Web URL; must           </text><text x="252.04" y="223.55">                              export/include a &#x60;sections&#x60; property, and it is recommended to export a       </text><text x="252.04" y="242.55">                              &#x60;definitions&#x60; property as well, for easier reusability with &#x60;command-line-    </text><text x="252.04" y="261.55">                              args&#x60;.                                                                        </text><text x="16.8" y="280.55" font-weight="bold">-f</text><text x="33.61" y="280.55">, </text><text x="50.41" y="280.55" font-weight="bold">--format</text><path d="M126.0205078125,282.5146875 L226.8369140625,282.5146875 Z" stroke="#D3D3D3"/><text x="126.02" y="280.55">&#x22;svg&#x22;|&#x22;html&#x22;</text><text x="252.04" y="280.55">   Format of the output; defaults to &#x22;svg&#x22;.                                      </text><text x="16.8" y="299.55" font-weight="bold">-v</text><text x="33.61" y="299.55">, </text><text x="50.41" y="299.55" font-weight="bold">--version</text><text x="16.8" y="318.55" font-weight="bold">-h</text><text x="33.61" y="318.55">, </text><text x="50.41" y="318.55" font-weight="bold">--help</text></g></svg>